<?xml version="1.0" encoding="UTF-8"?>
<svg xmlns="http://www.w3.org/2000/svg" xmlns:xlink="http://www.w3.org/1999/xlink" width="614.83pt" height="252.13pt" viewBox="0 0 614.83 252.13" version="1.1">
<defs>
<clipPath id="clip1">
  <path d="M 492 62 L 614.828125 62 L 614.828125 185 L 492 185 Z M 492 62 "/>
</clipPath>
<clipPath id="clip2">
  <path d="M 71 230 L 101 230 L 101 252.128906 L 71 252.128906 Z M 71 230 "/>
</clipPath>
</defs>
<g id="surface1">
<path style=" stroke:none;fill-rule:nonzero;fill:rgb(86.698914%,25.099182%,16.499329%);fill-opacity:1;" d="M 24.746094 21.847656 L 147.230469 21.847656 C 143.285156 14.992188 131.246094 9.992188 124.15625 7.246094 C 100.449219 -1.9375 72.867188 -2.710938 49.078125 6.75 C 41.527344 9.726563 28.941406 14.53125 24.746094 21.847656 "/>
<path style=" stroke:none;fill-rule:nonzero;fill:rgb(86.698914%,25.099182%,16.499329%);fill-opacity:1;" d="M 2.9375 54.984375 L 169.039063 54.984375 C 167.589844 48.722656 164.351563 42.316406 160.859375 36.949219 C 159.734375 35.269531 158.472656 32.535156 156.4375 31.75 C 153.476563 30.65625 148.710938 31.496094 145.550781 31.496094 L 25.167969 31.496094 C 22.347656 31.496094 18.183594 30.726563 15.519531 31.75 C 13.371094 32.585938 12.085938 35.515625 10.90625 37.367188 C 7.550781 42.726563 4.367188 48.792969 2.9375 54.984375 "/>
<g clip-path="url(#clip1)" clip-rule="nonzero">
<path style=" stroke:none;fill-rule:nonzero;fill:rgb(86.698914%,25.099182%,16.499329%);fill-opacity:1;" d="M 614.828125 123.253906 C 614.828125 156.964844 587.503906 184.292969 553.789063 184.292969 C 520.078125 184.292969 492.75 156.964844 492.75 123.253906 C 492.75 89.539063 520.078125 62.210938 553.789063 62.210938 C 587.503906 62.210938 614.828125 89.539063 614.828125 123.253906 "/>
</g>
<path style=" stroke:none;fill-rule:nonzero;fill:rgb(86.698914%,25.099182%,16.499329%);fill-opacity:1;" d="M 386.714844 123.253906 C 386.714844 156.964844 359.382813 184.292969 325.671875 184.292969 C 291.960938 184.292969 264.632813 156.964844 264.632813 123.253906 C 264.632813 89.539063 291.960938 62.210938 325.671875 62.210938 C 359.382813 62.210938 386.714844 89.539063 386.714844 123.253906 "/>
<path style=" stroke:none;fill-rule:nonzero;fill:rgb(86.698914%,25.099182%,16.499329%);fill-opacity:1;" d="M 377.089844 63.375 L 406.554688 122.097656 L 417.507813 143.910156 L 417.777344 156.074219 L 417.777344 181.660156 L 460.980469 181.660156 L 460.5625 156.914063 L 460.828125 144.328125 L 469.6875 126.714844 L 487.824219 90.640625 L 496.738281 73.023438 L 501.246094 62.953125 L 469.367188 62.953125 C 466.503906 62.953125 460.101563 61.765625 457.789063 63.628906 C 455.492188 65.476563 454.210938 70 452.90625 72.601563 C 449.960938 78.496094 446.972656 84.363281 443.960938 90.222656 C 442.414063 93.226563 441.171875 97.058594 438.75 99.449219 L 434.085938 89.382813 L 425.644531 72.601563 L 420.550781 63.386719 L 409.386719 62.953125 L 387.996094 62.953125 L 377.089844 63.375 "/>
<path style=" stroke:none;fill-rule:nonzero;fill:rgb(86.698914%,25.099182%,16.499329%);fill-opacity:1;" d="M 0.417969 64.632813 L 0 88.121094 L 171.976563 88.121094 L 171.558594 64.632813 L 0.417969 64.632813 "/>
<path style=" stroke:none;fill-rule:nonzero;fill:rgb(86.698914%,25.099182%,16.499329%);fill-opacity:1;" d="M 2.515625 97.769531 C 3.558594 105.515625 7.242188 114.800781 10.90625 121.679688 C 20.363281 119.425781 32.21875 121.261719 41.945313 121.261719 L 142.195313 121.261719 C 148.210938 121.261719 155.199219 120.28125 161.070313 121.679688 C 164.742188 115.226563 168.8125 105.191406 169.460938 97.769531 L 2.515625 97.769531 "/>
<path style=" stroke:none;fill-rule:nonzero;fill:rgb(100%,100%,100%);fill-opacity:1;" d="M 549.902344 101.308594 C 547.125 101.757813 544.304688 102.929688 541.9375 104.480469 C 523.058594 116.363281 534.476563 147.265625 556.617188 143.726563 C 559.730469 143.234375 562.773438 142.066406 565.425781 140.367188 C 584.800781 127.972656 571.984375 97.769531 549.902344 101.308594 Z M 321.722656 101.304688 C 318.753906 101.734375 315.847656 102.804688 313.332031 104.359375 C 294.304688 116.4375 305.859375 146.910156 328.015625 143.730469 C 331.023438 143.296875 333.808594 142.265625 336.402344 140.660156 C 355.886719 128.589844 343.953125 98.082031 321.722656 101.304688 "/>
<path style=" stroke:none;fill-rule:nonzero;fill:rgb(86.698914%,25.099182%,16.499329%);fill-opacity:1;" d="M 575.910156 217.734375 C 575.910156 219.007813 575.492188 220.980469 576.328125 222.074219 C 579.257813 226.144531 589.429688 224.289063 591.410156 220.25 C 595.761719 211.351563 584.382813 211.742188 580.824219 207.507813 C 577.988281 204.125 584.289063 203.199219 586.398438 203.804688 C 588.003906 204.3125 589.335938 205.195313 591.011719 205.570313 L 591.011719 201.375 C 585.644531 199.175781 571.058594 199.457031 576.328125 209.347656 C 578.695313 213.617188 584.441406 212.519531 587.085938 216.078125 C 588.496094 218.03125 586.613281 219.703125 584.71875 220.140625 C 581.363281 220.90625 578.773438 218.921875 575.910156 217.734375 Z M 549.066406 224.027344 L 553.261719 223.605469 L 553.261719 208.085938 L 553.679688 208.085938 L 559.972656 218.570313 L 560.8125 218.570313 L 567.101563 208.085938 L 567.519531 208.085938 L 567.519531 224.027344 L 571.714844 224.027344 L 571.714844 199.695313 C 566.15625 199.703125 562.84375 207.148438 560.8125 211.863281 C 558.640625 209.035156 554.933594 199.277344 550.742188 199.769531 C 548.308594 200.117188 549.066406 203.816406 549.066406 205.570313 Z M 531.03125 199.964844 C 517.605469 203.78125 522.742188 227.800781 537.320313 223.695313 C 551.039063 219.894531 545.804688 195.765625 531.03125 199.964844 Z M 506.699219 199.914063 C 493.140625 202.875 497.472656 226.773438 512.152344 223.824219 C 526.242188 220.984375 521.664063 196.652344 506.699219 199.914063 Z M 478.597656 199.695313 L 478.597656 224.027344 L 482.371094 224.027344 L 482.792969 214.378906 C 489.503906 214.886719 488.636719 224.5 496.632813 223.605469 L 490.34375 213.960938 C 495.726563 212.316406 498.410156 204.558594 492.785156 201.132813 C 488.910156 198.769531 482.925781 199.695313 478.597656 199.695313 Z M 50.753906 197.601563 L 60.820313 214.378906 L 65.171875 220.671875 L 70.046875 221.089844 L 98.992188 221.089844 L 106.453125 220.835938 L 113.328125 210.769531 L 121.222656 197.601563 Z M 31.878906 164.042969 C 32.996094 169.84375 38.070313 176.0625 40.914063 181.242188 C 41.933594 183.097656 43.195313 186.367188 45.039063 187.535156 C 46.5 188.433594 49.078125 187.953125 50.753906 187.953125 L 121.640625 187.953125 C 123.195313 187.953125 125.558594 188.382813 126.933594 187.535156 C 128.773438 186.363281 130.171875 183.375 131.203125 181.519531 C 134.074219 176.359375 138.078125 169.769531 140.097656 164.042969 L 120.800781 164.464844 L 51.171875 164.464844 Z M 15.101563 130.90625 C 16.359375 136.980469 20.507813 143.488281 23.398438 148.945313 C 24.222656 150.511719 25.257813 153.800781 26.957031 154.5625 C 29.210938 155.578125 33.136719 154.816406 35.652344 154.816406 L 137.160156 154.816406 C 139.425781 154.816406 142.941406 155.476563 145.042969 154.5625 C 146.808594 153.769531 147.761719 150.621094 148.589844 148.945313 C 151.363281 143.394531 155.78125 137.046875 156.875 130.90625 L 15.101563 130.90625 "/>
<path style=" stroke:none;fill-rule:nonzero;fill:rgb(100%,100%,100%);fill-opacity:1;" d="M 532.289063 203.746094 C 524.09375 206.320313 527.054688 223.117188 536.480469 219.894531 C 544.445313 217.167969 541.507813 200.855469 532.289063 203.746094 Z M 507.539063 203.746094 C 499.394531 206.308594 502.449219 223.238281 511.734375 219.882813 C 519.703125 216.980469 516.753906 200.847656 507.539063 203.746094 Z M 482.792969 210.601563 C 484.457031 210.601563 486.148438 210.707031 487.824219 210.601563 C 496.757813 209.90625 487.09375 199.277344 483.210938 204.144531 C 482.140625 205.570313 482.792969 208.9375 482.792969 210.601563 "/>
<g clip-path="url(#clip2)" clip-rule="nonzero">
<path style=" stroke:none;fill-rule:nonzero;fill:rgb(86.698914%,25.099182%,16.499329%);fill-opacity:1;" d="M 71.726563 230.738281 C 76.332031 238.644531 81.164063 245.652344 85.570313 252.128906 L 86.40625 252.128906 C 90.820313 245.589844 95.582031 238.519531 100.25 230.738281 L 71.726563 230.738281 "/>
</g>
</g>
</svg>
